<svg width="511" height="511" viewBox="0 0 511 511" fill="none" xmlns="http://www.w3.org/2000/svg">
<g id="tag (1) 1">
<path id="Vector" d="M148.62 61C139.254 61 131.104 67.6103 128.857 76.6873H82.8189C79.4329 76.6873 76.2491 78.0303 73.8545 80.4683L7.95642 147.572C4.01453 151.586 4.01453 158.117 7.95642 162.131L69.6854 224.99C71.6563 226.997 74.2454 228 76.8342 228C79.423 228 82.0121 226.997 83.983 224.99L149.881 157.886C152.276 155.447 153.594 152.206 153.594 148.757V106.225C155.574 105.189 157.447 103.984 159.156 102.597C165.596 97.3721 169 90.1641 169 81.7531C169 70.3098 159.857 61 148.62 61ZM148.78 148.758C148.78 150.896 147.962 152.907 146.477 154.419L80.5787 221.523C78.5137 223.626 75.1544 223.626 73.0894 221.523L11.3604 158.665C9.29573 156.562 9.29573 153.142 11.3604 151.039L77.2588 83.9349C78.7442 82.4224 80.7186 81.5896 82.8189 81.5896H143.485C146.405 81.5896 148.78 84.0088 148.78 86.9822V103.086C144.581 104.847 139.956 105.861 135.511 106.225C134.702 99.8952 129.377 94.9893 122.944 94.9893C115.954 94.9893 110.266 100.781 110.266 107.899C110.266 115.017 115.954 120.808 122.944 120.808C128.822 120.808 133.778 116.712 135.206 111.176C139.71 110.872 144.391 109.96 148.78 108.35V148.758ZM122.406 110.288C124.735 110.832 127.335 111.16 130.079 111.259C128.829 114 126.101 115.906 122.944 115.906C118.608 115.906 115.08 112.314 115.08 107.899C115.08 103.484 118.608 99.8919 122.944 99.8919C126.764 99.8919 129.955 102.681 130.66 106.365C128.067 106.301 125.625 106.01 123.481 105.51C122.186 105.207 120.894 106.032 120.597 107.351C120.301 108.671 121.11 109.985 122.406 110.288ZM156.156 98.763C155.346 99.42 154.489 100.029 153.594 100.596V86.9822C153.594 81.3056 149.059 76.6873 143.485 76.6873H133.868C135.967 70.3774 141.883 65.9023 148.62 65.9023C157.203 65.9023 164.186 73.0129 164.186 81.7531C164.186 88.7169 161.484 94.4399 156.156 98.763Z" fill="#30251E"/>
<path id="20$ per month" d="M48.401 133.317C48.8244 132.767 49.0167 132.513 48.9778 132.555C50.1859 130.919 51.124 129.588 51.7922 128.564C52.4759 127.536 53.0102 126.505 53.3951 125.469C53.78 124.433 53.868 123.496 53.659 122.657C53.5004 122.021 53.2291 121.561 52.8451 121.277C52.4611 120.994 51.9741 120.925 51.3842 121.072C50.7942 121.22 50.3846 121.561 50.1553 122.096C49.9376 122.612 49.9294 123.274 50.1306 124.081L46.2881 125.039C45.9903 123.711 45.995 122.539 46.3023 121.523C46.6251 120.503 47.1689 119.674 47.9339 119.039C48.7143 118.399 49.6402 117.945 50.7114 117.678C52.5589 117.218 54.0664 117.345 55.2339 118.06C56.417 118.771 57.1981 119.887 57.5773 121.409C57.9914 123.07 57.8097 124.756 57.0324 126.467C56.2512 128.162 55.1518 129.903 53.7341 131.691L60.0217 130.124L60.8285 133.361L49.1382 136.275L48.401 133.317ZM60.4633 124.424C59.7977 121.754 59.7857 119.523 60.4273 117.73C61.0844 115.934 62.5618 114.75 64.8595 114.177C67.1572 113.604 69.0099 113.959 70.4176 115.24C71.8409 116.518 72.8853 118.492 73.5509 121.162C74.2242 123.864 74.2323 126.112 73.5752 127.909C72.9336 129.701 71.464 130.884 69.1663 131.456C66.8686 132.029 65.0081 131.676 63.5848 130.399C62.1771 129.117 61.1366 127.126 60.4633 124.424ZM69.6385 122.137C69.2477 120.569 68.7771 119.409 68.2266 118.655C67.6722 117.887 66.8594 117.636 65.7881 117.903C64.7169 118.17 64.1169 118.773 63.9882 119.712C63.8556 120.635 63.9847 121.881 64.3756 123.449C64.6387 124.505 64.9194 125.367 65.2178 126.034C65.5122 126.686 65.8999 127.183 66.3809 127.525C66.8735 127.848 67.4924 127.916 68.2376 127.73C68.9828 127.544 69.4894 127.196 69.7576 126.684C70.0373 126.152 70.1542 125.529 70.1081 124.815C70.0582 124.086 69.9017 123.193 69.6385 122.137ZM89.4089 121.439C89.6217 122.293 89.5939 123.141 89.3256 123.983C89.0689 124.805 88.5638 125.558 87.8105 126.24C87.0689 126.903 86.1139 127.405 84.9456 127.746L85.4158 129.632L83.9253 130.004L83.4494 128.094C81.7689 128.365 80.3196 128.206 79.1016 127.619C77.8796 127.017 77.0557 125.994 76.6299 124.55L80.8682 123.494C81.1935 124.402 81.7927 124.888 82.6658 124.95L81.7487 121.271C80.4604 121.262 79.4146 121.201 78.6114 121.088C77.8237 120.971 77.077 120.654 76.3711 120.138C75.6652 119.621 75.171 118.796 74.8885 117.663C74.5364 116.25 74.774 114.987 75.6013 113.874C76.4442 112.757 77.6749 111.939 79.2935 111.42L78.8233 109.534L80.3138 109.162L80.7839 111.049C82.445 110.767 83.8516 110.919 85.0037 111.506C86.1558 112.093 86.9681 113.102 87.4405 114.534L83.1789 115.596C82.8768 114.781 82.3454 114.337 81.5849 114.262L82.4846 117.872C83.8621 117.908 84.9351 117.978 85.7034 118.084C86.4716 118.189 87.2087 118.5 87.9146 119.017C88.6322 119.514 89.1302 120.321 89.4089 121.439ZM79.0571 116.426C79.1538 116.814 79.3515 117.111 79.6502 117.317C79.9644 117.519 80.3717 117.665 80.8723 117.754L80.0655 114.517C79.6501 114.703 79.3511 114.959 79.1685 115.285C78.982 115.595 78.9449 115.976 79.0571 116.426ZM84.1736 124.649C84.62 124.455 84.9384 124.178 85.1288 123.817C85.3348 123.452 85.3836 123.053 85.2752 122.618C85.1746 122.214 84.9614 121.921 84.6355 121.739C84.3214 121.537 83.8926 121.404 83.3494 121.342L84.1736 124.649ZM56.8022 153.552C56.9801 153.026 57.2904 152.559 57.733 152.152C58.1757 151.744 58.7406 151.455 59.4275 151.284C60.231 151.084 61.0095 151.106 61.7631 151.351C62.5167 151.596 63.1742 152.051 63.7354 152.715C64.3083 153.376 64.7195 154.207 64.9691 155.208C65.2187 156.21 65.2471 157.143 65.0544 158.007C64.8705 158.857 64.5047 159.572 63.9571 160.154C63.4067 160.724 62.7297 161.109 61.9263 161.309C61.251 161.478 60.6165 161.487 60.0229 161.339C59.4409 161.187 58.9492 160.926 58.5478 160.556L60.0453 166.564L57.0587 167.309L53.4716 152.917L56.4583 152.173L56.8022 153.552ZM61.9301 155.966C61.7444 155.221 61.3897 154.691 60.866 154.376C60.3511 154.047 59.7909 153.958 59.1854 154.108C58.5916 154.256 58.1388 154.598 57.827 155.133C57.5268 155.666 57.4696 156.305 57.6554 157.05C57.8411 157.795 58.1914 158.332 58.7063 158.662C59.2329 158.988 59.7931 159.077 60.3869 158.929C60.9807 158.781 61.4336 158.439 61.7454 157.904C62.0542 157.357 62.1158 156.711 61.9301 155.966ZM75.6881 152.388C75.7577 152.668 75.8128 152.963 75.8534 153.275L69.0941 154.959C69.2916 155.553 69.5998 155.971 70.0188 156.213C70.4464 156.44 70.9106 156.492 71.4113 156.367C72.1565 156.181 72.5963 155.737 72.7307 155.036L75.9094 154.244C75.906 154.925 75.7528 155.575 75.4496 156.195C75.1582 156.812 74.7285 157.346 74.1606 157.796C73.5928 158.247 72.913 158.571 72.1212 158.768C71.1664 159.006 70.2656 159.014 69.4188 158.793C68.5721 158.571 67.8448 158.134 67.237 157.481C66.6291 156.829 66.199 155.996 65.9465 154.983C65.694 153.97 65.6772 153.035 65.8961 152.176C66.1266 151.315 66.5637 150.588 67.2073 149.994C67.851 149.401 68.656 148.984 69.6224 148.743C70.5656 148.508 71.4533 148.497 72.2855 148.71C73.1177 148.923 73.829 149.346 74.4194 149.978C75.0214 150.607 75.4443 151.41 75.6881 152.388ZM72.4357 152.364C72.308 151.852 72.0318 151.488 71.607 151.272C71.1822 151.056 70.7079 151.014 70.1839 151.145C69.6832 151.269 69.2945 151.521 69.0177 151.899C68.7526 152.274 68.6461 152.74 68.698 153.296L72.4357 152.364ZM79.4798 148.16C79.6956 147.537 80.0278 147.009 80.4763 146.576C80.9219 146.131 81.4649 145.828 82.1053 145.669L82.8932 148.83L82.0724 149.035C81.3272 149.22 80.8089 149.523 80.5175 149.942C80.2233 150.349 80.1763 150.954 80.3766 151.758L81.504 156.281L78.5174 157.026L76.0883 147.28L79.0749 146.535L79.4798 148.16ZM72.4109 175.911C73.6219 175.609 74.6739 175.737 75.567 176.293C76.4718 176.847 77.0867 177.776 77.4117 179.08L78.8309 184.774L75.8617 185.514L74.5427 180.222C74.386 179.593 74.0967 179.152 73.6748 178.898C73.2618 178.63 72.7641 178.569 72.1819 178.714C71.5997 178.859 71.1833 179.148 70.9327 179.582C70.6909 180.001 70.6483 180.524 70.805 181.153L72.1241 186.445L69.1549 187.185L67.8359 181.893C67.6791 181.264 67.3899 180.823 66.968 180.57C66.5549 180.302 66.0573 180.24 65.4751 180.385C64.8929 180.53 64.4765 180.82 64.2259 181.253C63.9841 181.672 63.9415 182.196 64.0982 182.825L65.4172 188.117L62.4306 188.861L60.0015 179.115L62.9881 178.371L63.2929 179.594C63.494 179.111 63.8101 178.692 64.2411 178.337C64.6692 177.971 65.1918 177.71 65.8089 177.557C66.5425 177.374 67.2337 177.369 67.8826 177.541C68.5432 177.71 69.109 178.045 69.5801 178.546C69.7843 177.926 70.1354 177.375 70.6334 176.892C71.1314 176.409 71.7239 176.082 72.4109 175.911ZM85.3908 183.287C84.436 183.525 83.5235 183.536 82.6535 183.32C81.795 183.101 81.0503 182.668 80.4192 182.022C79.7997 181.372 79.3637 180.541 79.1113 179.528C78.8617 178.527 78.8638 177.592 79.1176 176.725C79.3685 175.847 79.8275 175.108 80.4944 174.509C81.1613 173.909 81.9721 173.491 82.9269 173.253C83.8817 173.015 84.7941 173.004 85.6642 173.22C86.5343 173.436 87.2863 173.873 87.9203 174.531C88.5514 175.178 88.9918 176.002 89.2413 177.003C89.4909 178.005 89.4844 178.946 89.2219 179.828C88.9681 180.695 88.5019 181.429 87.8233 182.031C87.1564 182.63 86.3455 183.049 85.3908 183.287ZM84.7465 180.702C85.317 180.56 85.748 180.23 86.0394 179.712C86.3425 179.191 86.3968 178.541 86.2023 177.761C86.0079 176.981 85.6605 176.43 85.1601 176.11C84.6714 175.786 84.1417 175.696 83.5712 175.838C82.989 175.983 82.558 176.313 82.2783 176.828C81.9956 177.331 81.9529 177.979 82.1503 178.771C82.3447 179.551 82.6805 180.104 83.1576 180.43C83.6463 180.754 84.1759 180.844 84.7465 180.702ZM95.5235 170.15C96.6645 169.866 97.6656 170.012 98.5267 170.589C99.3965 171.151 99.9925 172.079 100.315 173.371L101.734 179.065L98.7646 179.805L97.4456 174.513C97.2831 173.861 96.988 173.397 96.5604 173.12C96.1327 172.843 95.6336 172.776 95.0631 172.918C94.4926 173.06 94.0834 173.354 93.8357 173.799C93.588 174.244 93.5454 174.793 93.708 175.445L95.027 180.737L92.0404 181.481L89.6113 171.735L92.5979 170.991L92.92 172.283C93.1154 171.777 93.4387 171.338 93.8901 170.966C94.3386 170.582 94.883 170.31 95.5235 170.15ZM108.61 174.661L109.241 177.194L107.722 177.573C106.639 177.843 105.729 177.791 104.993 177.418C104.254 177.033 103.735 176.241 103.436 175.042L102.47 171.165L101.282 171.461L100.664 168.981L101.852 168.684L101.26 166.309L104.246 165.565L104.838 167.94L106.794 167.453L107.413 169.933L105.456 170.42L106.432 174.333C106.504 174.624 106.626 174.816 106.798 174.909C106.97 175.002 107.218 175.008 107.544 174.927L108.61 174.661ZM114.44 165.436C115.558 165.157 116.547 165.306 117.408 165.883C118.267 166.448 118.857 167.377 119.179 168.669L120.598 174.363L117.629 175.103L116.31 169.811C116.147 169.159 115.852 168.695 115.425 168.418C114.997 168.141 114.498 168.074 113.927 168.216C113.357 168.358 112.948 168.652 112.7 169.097C112.452 169.542 112.41 170.091 112.572 170.743L113.891 176.035L110.905 176.779L107.683 163.855L110.67 163.11L111.789 167.599C111.984 167.093 112.312 166.646 112.772 166.259C113.232 165.873 113.788 165.598 114.44 165.436Z" fill="black"/>
</g>
</svg>
